<svg width="20" height="20" viewBox="0 0 20 20" fill="none" xmlns="http://www.w3.org/2000/svg">
<path d="M6.2896 18.1256C13.8368 18.1256 17.9648 11.8728 17.9648 6.45038C17.9648 6.27278 17.9648 6.09598 17.9528 5.91998C18.7559 5.33911 19.4491 4.61989 20 3.79598C19.2512 4.12798 18.4567 4.34561 17.6432 4.44158C18.4998 3.92882 19.141 3.12224 19.4472 2.17198C18.6417 2.64999 17.7605 2.98684 16.8416 3.16798C16.2229 2.51013 15.4047 2.07452 14.5135 1.92855C13.6223 1.78259 12.7078 1.93441 11.9116 2.36053C11.1154 2.78664 10.4819 3.46329 10.109 4.28577C9.73605 5.10825 9.64462 6.0307 9.8488 6.91038C8.21741 6.82855 6.62146 6.40458 5.16455 5.66599C3.70763 4.9274 2.4223 3.8907 1.392 2.62318C0.867274 3.52651 0.70656 4.59587 0.942583 5.61353C1.17861 6.6312 1.79362 7.52064 2.6624 8.10078C2.00936 8.08165 1.37054 7.90548 0.8 7.58718V7.63918C0.800259 8.58656 1.12821 9.50468 1.72823 10.2378C2.32824 10.971 3.16338 11.474 4.092 11.6616C3.4879 11.8264 2.85406 11.8504 2.2392 11.732C2.50151 12.5473 3.01202 13.2602 3.69937 13.7711C4.38671 14.282 5.21652 14.5654 6.0728 14.5816C5.22203 15.2503 4.24776 15.7447 3.20573 16.0366C2.16369 16.3284 1.07435 16.4119 0 16.2824C1.87653 17.4866 4.05994 18.1253 6.2896 18.1224" fill="#1DA1F2"/>
</svg>
