<svg width="40" height="40" viewBox="0 0 40 40" fill="none" xmlns="http://www.w3.org/2000/svg">
<path d="M18.2826 12.4325C23.7569 14.3646 29.6607 14.2573 35.0814 12.1641C35.135 9.96364 34.5447 7.76316 33.5249 5.77735L32.9882 4.70395C32.8272 4.75762 32.6125 4.86497 32.5052 4.97231C27.5675 7.3338 21.9858 7.65582 16.7798 5.77736C13.1302 4.48927 9.15859 4.81129 5.72369 6.52874L4.65028 7.06545C4.70395 7.22646 4.81131 7.44113 4.91865 7.54847C5.56269 8.9439 6.09939 10.4467 6.47508 12.0031C10.232 10.9297 14.4183 11.037 18.2826 12.4325Z" fill="white"/>
<path d="M4.91866 28.5872L6.09939 27.9432C8.49187 26.747 11.1312 26.1679 13.75 26.2443C15.361 26.2912 16.9641 26.5862 18.4973 27.1381C18.9967 27.3153 19.4977 27.478 20 27.6263V33.3471C17.922 32.9608 15.8184 32.9056 13.75 33.1719C11.6044 33.4481 9.49667 34.0703 7.49483 35.0277C7.38749 35.135 7.1728 35.2424 7.01179 35.296L6.47509 34.2226C5.56269 32.4515 5.026 30.5194 4.91866 28.5872Z" fill="white"/>
<path d="M5.56252 23.6496C10.1245 21.7711 15.2232 21.6101 19.8925 23.2739C24.1861 24.7766 28.7481 25.045 33.0417 24.0789C32.9881 21.6638 33.3101 19.3023 34.1688 16.9408C28.5334 18.6045 22.4687 18.4435 16.8333 16.4577C13.6131 15.277 10.0708 15.277 6.85061 16.3504C6.90428 18.6582 6.47493 21.0197 5.66988 23.3275C5.66988 23.3275 5.61619 23.4886 5.56252 23.6496Z" fill="white"/>
</svg>
