<svg xmlns="http://www.w3.org/2000/svg" xmlns:xlink="http://www.w3.org/1999/xlink" width="500" zoomAndPan="magnify" viewBox="0 0 375 374.999991" height="500" preserveAspectRatio="xMidYMid meet" version="1.0"><defs><g/><clipPath id="ece25fea3c"><path d="M 78.5 119.667969 L 142.40625 119.667969 L 142.40625 192.402344 L 78.5 192.402344 Z M 78.5 119.667969 " clip-rule="nonzero"/></clipPath><clipPath id="ff925bf12d"><path d="M 232.839844 119.667969 L 296.746094 119.667969 L 296.746094 192.402344 L 232.839844 192.402344 Z M 232.839844 119.667969 " clip-rule="nonzero"/></clipPath></defs><path fill="#7cc529" d="M 181.214844 174.898438 C 177.867188 169.917969 168.804688 157.808594 156.441406 152.078125 C 170.539062 161.3125 177.472656 171.84375 180.089844 176.617188 C 170.820312 180.183594 148.230469 173.992188 145.949219 142.199219 C 184.738281 151.132812 184.984375 166.878906 181.214844 174.898438 " fill-opacity="1" fill-rule="nonzero"/><path fill="#7cc529" d="M 186.621094 176.984375 C 189.890625 171.019531 198.558594 157.855469 216.183594 146.308594 C 200.726562 153.476562 189.398438 168.605469 185.210938 174.835938 C 180.5 164.8125 180.808594 145.128906 229.296875 133.964844 C 226.445312 173.703125 198.210938 181.441406 186.621094 176.984375 " fill-opacity="1" fill-rule="nonzero"/><g clip-path="url(#ece25fea3c)"><path fill="#503524" d="M 140.300781 184.578125 C 124.097656 175.199219 91.226562 156.171875 90.992188 156.035156 C 105.109375 147.863281 137.984375 128.835938 140.300781 127.492188 C 144.953125 124.800781 140.753906 117.558594 136.085938 120.261719 C 119.882812 129.640625 103.683594 139.019531 87.480469 148.394531 C 85.164062 149.738281 82.847656 151.078125 80.53125 152.417969 C 77.820312 153.988281 77.820312 158.082031 80.53125 159.648438 C 96.730469 169.027344 133.765625 190.464844 136.085938 191.808594 C 140.746094 194.507812 144.957031 187.273438 140.300781 184.578125 " fill-opacity="1" fill-rule="nonzero"/></g><g clip-path="url(#ff925bf12d)"><path fill="#503524" d="M 294.714844 152.417969 C 278.515625 143.042969 241.480469 121.605469 239.160156 120.261719 C 234.496094 117.5625 230.289062 124.796875 234.945312 127.492188 C 251.148438 136.871094 284.019531 155.898438 284.253906 156.035156 C 270.136719 164.207031 237.261719 183.234375 234.945312 184.578125 C 230.292969 187.269531 234.492188 194.511719 239.160156 191.808594 C 255.363281 182.429688 292.398438 160.992188 294.714844 159.648438 C 297.425781 158.082031 297.425781 153.988281 294.714844 152.417969 " fill-opacity="1" fill-rule="nonzero"/></g><g fill="#7cc529" fill-opacity="1"><g transform="translate(93.027028, 234.839092)"><g><path d="M 10.023438 0.28125 C 13.1875 0.28125 14.921875 -0.671875 16.097656 -1.902344 C 16.601562 -2.464844 16.742188 -3.164062 16.742188 -4.339844 L 16.742188 -8.148438 C 16.742188 -9.6875 15.902344 -10.527344 14.363281 -10.527344 L 11.816406 -10.527344 C 10.273438 -10.527344 9.433594 -9.882812 9.433594 -8.734375 C 9.433594 -7.585938 10.273438 -6.945312 11.816406 -6.945312 L 12.261719 -6.945312 L 12.261719 -4.789062 C 12.261719 -4.058594 11.171875 -3.640625 9.882812 -3.640625 C 8.0625 -3.640625 6.523438 -4.789062 6.523438 -9.714844 C 6.523438 -14.277344 7.308594 -15.902344 9.660156 -15.902344 C 10.582031 -15.902344 11.199219 -15.652344 11.449219 -15.007812 C 12.011719 -13.578125 12.207031 -12.792969 13.664062 -12.792969 L 14 -12.792969 C 15.539062 -12.792969 16.601562 -13.664062 16.324219 -15.203125 C 15.734375 -18.140625 13.410156 -19.683594 9.632812 -19.683594 C 4.117188 -19.683594 1.398438 -16.351562 1.398438 -9.714844 C 1.398438 -3.050781 4.058594 0.28125 10.023438 0.28125 Z M 10.023438 0.28125 "/></g></g></g><g fill="#7cc529" fill-opacity="1"><g transform="translate(114.808552, 234.839092)"><g><path d="M 4.480469 0 L 4.984375 0 C 6.523438 0 7.363281 -0.839844 7.363281 -2.378906 C 7.335938 -3.917969 7.335938 -5.460938 7.335938 -7 L 8.371094 -7 C 10.640625 -7 11.394531 -4.925781 11.785156 -2.269531 C 12.011719 -0.757812 12.824219 0 14.308594 0 L 15.203125 0 C 16.855469 0 17.722656 -1.007812 17.359375 -2.6875 C 16.574219 -6.160156 15.425781 -7.894531 13.578125 -8.457031 L 13.578125 -8.566406 C 15.957031 -9.15625 17.414062 -11.058594 17.414062 -13.578125 C 17.414062 -17.667969 14.980469 -19.402344 9.296875 -19.402344 L 4.480469 -19.402344 C 2.941406 -19.402344 2.101562 -18.5625 2.101562 -17.023438 C 2.128906 -14.585938 2.15625 -12.152344 2.15625 -9.714844 C 2.15625 -7.25 2.128906 -4.816406 2.101562 -2.378906 C 2.101562 -0.839844 2.941406 0 4.480469 0 Z M 7.335938 -10.078125 C 7.335938 -12.710938 7.335938 -14.140625 7.363281 -15.539062 L 8.707031 -15.539062 C 11.03125 -15.539062 12.011719 -14.8125 12.011719 -13.074219 C 12.011719 -10.945312 10.917969 -10.078125 8.289062 -10.078125 Z M 7.335938 -10.078125 "/></g></g></g><g fill="#7cc529" fill-opacity="1"><g transform="translate(137.541939, 234.839092)"><g><path d="M 7.335938 -3.722656 L 7.335938 -7.726562 C 8.511719 -7.699219 9.6875 -7.699219 10.808594 -7.671875 C 12.347656 -7.671875 13.1875 -8.34375 13.1875 -9.574219 C 13.1875 -10.777344 12.347656 -11.449219 10.808594 -11.449219 C 9.6875 -11.421875 8.511719 -11.421875 7.335938 -11.394531 L 7.335938 -15.679688 C 8.875 -15.652344 10.441406 -15.652344 11.925781 -15.621094 C 13.46875 -15.621094 14.308594 -16.292969 14.308594 -17.527344 C 14.308594 -18.730469 13.46875 -19.402344 11.925781 -19.402344 L 4.480469 -19.402344 C 2.941406 -19.402344 2.101562 -18.5625 2.128906 -17.023438 C 2.128906 -14.585938 2.15625 -12.152344 2.15625 -9.714844 C 2.15625 -7.28125 2.128906 -4.84375 2.128906 -2.378906 C 2.101562 -0.839844 2.941406 0 4.480469 0 L 12.207031 0 C 13.746094 0 14.585938 -0.671875 14.585938 -1.902344 C 14.585938 -3.109375 13.746094 -3.78125 12.207031 -3.78125 C 10.640625 -3.75 8.988281 -3.75 7.335938 -3.722656 Z M 7.335938 -3.722656 "/></g></g></g><g fill="#7cc529" fill-opacity="1"><g transform="translate(156.999772, 234.839092)"><g><path d="M 7.335938 -3.722656 L 7.335938 -7.726562 C 8.511719 -7.699219 9.6875 -7.699219 10.808594 -7.671875 C 12.347656 -7.671875 13.1875 -8.34375 13.1875 -9.574219 C 13.1875 -10.777344 12.347656 -11.449219 10.808594 -11.449219 C 9.6875 -11.421875 8.511719 -11.421875 7.335938 -11.394531 L 7.335938 -15.679688 C 8.875 -15.652344 10.441406 -15.652344 11.925781 -15.621094 C 13.46875 -15.621094 14.308594 -16.292969 14.308594 -17.527344 C 14.308594 -18.730469 13.46875 -19.402344 11.925781 -19.402344 L 4.480469 -19.402344 C 2.941406 -19.402344 2.101562 -18.5625 2.128906 -17.023438 C 2.128906 -14.585938 2.15625 -12.152344 2.15625 -9.714844 C 2.15625 -7.28125 2.128906 -4.84375 2.128906 -2.378906 C 2.101562 -0.839844 2.941406 0 4.480469 0 L 12.207031 0 C 13.746094 0 14.585938 -0.671875 14.585938 -1.902344 C 14.585938 -3.109375 13.746094 -3.78125 12.207031 -3.78125 C 10.640625 -3.75 8.988281 -3.75 7.335938 -3.722656 Z M 7.335938 -3.722656 "/></g></g></g><g fill="#7cc529" fill-opacity="1"><g transform="translate(176.457611, 234.839092)"><g><path d="M 14.839844 -19.402344 C 13.355469 -19.402344 12.597656 -18.535156 12.710938 -16.9375 C 12.90625 -14.308594 13.046875 -11.589844 13.128906 -8.539062 L 13.074219 -8.539062 L 8.707031 -17.636719 C 8.121094 -18.871094 7.25 -19.402344 5.90625 -19.402344 L 4.480469 -19.402344 C 2.941406 -19.402344 2.101562 -18.5625 2.128906 -17.023438 C 2.15625 -12.121094 2.15625 -7.28125 2.128906 -2.378906 C 2.101562 -0.839844 2.910156 0 4.367188 0 C 5.824219 0 6.578125 -0.867188 6.496094 -2.464844 C 6.269531 -5.824219 6.132812 -9.015625 6.046875 -12.992188 L 6.101562 -12.992188 L 11.507812 -1.765625 C 12.09375 -0.53125 12.960938 0 14.308594 0 L 14.726562 0 C 16.265625 0 17.105469 -0.839844 17.078125 -2.378906 C 17.050781 -7.28125 17.050781 -12.121094 17.078125 -17.023438 C 17.105469 -18.5625 16.324219 -19.402344 14.839844 -19.402344 Z M 14.839844 -19.402344 "/></g></g></g><g fill="#503524" fill-opacity="1"><g transform="translate(199.304365, 234.839092)"><g><path d="M 9.433594 0.28125 C 13.4375 0.28125 15.957031 -1.289062 16.519531 -4.703125 C 16.796875 -6.328125 15.761719 -7.222656 14.222656 -7.222656 L 14.195312 -7.222656 C 12.738281 -7.222656 12.152344 -6.4375 11.675781 -4.957031 C 11.339844 -3.949219 10.667969 -3.582031 9.464844 -3.582031 C 7.867188 -3.582031 6.746094 -4.757812 6.746094 -9.714844 C 6.746094 -14.277344 7.53125 -15.902344 9.464844 -15.902344 C 10.890625 -15.902344 11.5625 -15.34375 11.785156 -13.886719 C 12.011719 -12.289062 12.597656 -11.421875 14.140625 -11.421875 L 14.308594 -11.421875 C 15.820312 -11.421875 16.855469 -12.234375 16.714844 -13.804688 C 16.378906 -17.609375 13.773438 -19.683594 9.632812 -19.683594 C 4.117188 -19.683594 1.371094 -16.351562 1.371094 -9.714844 C 1.371094 -3.050781 3.863281 0.28125 9.433594 0.28125 Z M 9.433594 0.28125 "/></g></g></g><g fill="#503524" fill-opacity="1"><g transform="translate(220.721933, 234.839092)"><g><path d="M 9.632812 0.28125 C 15.117188 0.28125 17.835938 -3.050781 17.835938 -9.714844 C 17.835938 -16.351562 15.117188 -19.683594 9.632812 -19.683594 C 4.144531 -19.683594 1.398438 -16.351562 1.398438 -9.714844 C 1.398438 -3.050781 4.144531 0.28125 9.632812 0.28125 Z M 9.632812 -3.5 C 7.417969 -3.5 6.746094 -4.957031 6.746094 -9.714844 C 6.746094 -14.445312 7.417969 -15.902344 9.632812 -15.902344 C 11.84375 -15.902344 12.488281 -14.445312 12.488281 -9.714844 C 12.488281 -4.957031 11.84375 -3.5 9.632812 -3.5 Z M 9.632812 -3.5 "/></g></g></g><g fill="#503524" fill-opacity="1"><g transform="translate(243.623307, 234.839092)"><g><path d="M 8.484375 0.0273438 C 14.839844 0 17.46875 -3.164062 17.46875 -9.96875 C 17.46875 -16.796875 14.839844 -19.402344 8.484375 -19.402344 L 4.535156 -19.402344 C 2.996094 -19.402344 2.15625 -18.535156 2.15625 -16.910156 C 2.15625 -8.425781 2.128906 -4.871094 2.101562 -2.324219 C 2.101562 -0.8125 2.941406 0 4.480469 0 Z M 7.363281 -3.863281 C 7.335938 -4.816406 7.335938 -5.851562 7.335938 -6.859375 C 7.335938 -11.648438 7.335938 -13.605469 7.363281 -15.539062 L 8.371094 -15.539062 C 11.394531 -15.539062 12.289062 -14 12.289062 -9.714844 C 12.289062 -5.964844 11.28125 -3.863281 8.371094 -3.863281 Z M 7.363281 -3.863281 "/></g></g></g><g fill="#503524" fill-opacity="1"><g transform="translate(266.13273, 234.839092)"><g><path d="M 7.335938 -3.722656 L 7.335938 -7.726562 C 8.511719 -7.699219 9.6875 -7.699219 10.808594 -7.671875 C 12.347656 -7.671875 13.1875 -8.34375 13.1875 -9.574219 C 13.1875 -10.777344 12.347656 -11.449219 10.808594 -11.449219 C 9.6875 -11.421875 8.511719 -11.421875 7.335938 -11.394531 L 7.335938 -15.679688 C 8.875 -15.652344 10.441406 -15.652344 11.925781 -15.621094 C 13.46875 -15.621094 14.308594 -16.292969 14.308594 -17.527344 C 14.308594 -18.730469 13.46875 -19.402344 11.925781 -19.402344 L 4.480469 -19.402344 C 2.941406 -19.402344 2.101562 -18.5625 2.128906 -17.023438 C 2.128906 -14.585938 2.15625 -12.152344 2.15625 -9.714844 C 2.15625 -7.28125 2.128906 -4.84375 2.128906 -2.378906 C 2.101562 -0.839844 2.941406 0 4.480469 0 L 12.207031 0 C 13.746094 0 14.585938 -0.671875 14.585938 -1.902344 C 14.585938 -3.109375 13.746094 -3.78125 12.207031 -3.78125 C 10.640625 -3.75 8.988281 -3.75 7.335938 -3.722656 Z M 7.335938 -3.722656 "/></g></g></g><g fill="#737373" fill-opacity="1"><g transform="translate(122.44611, 251.189076)"><g><path d="M 2.265625 -7.703125 C 2.898438 -7.703125 3.359375 -7.550781 3.640625 -7.25 C 3.921875 -6.957031 4.0625 -6.515625 4.0625 -5.921875 L 4.0625 -5.65625 C 4.0625 -5.257812 4 -4.929688 3.875 -4.671875 C 3.75 -4.421875 3.550781 -4.234375 3.28125 -4.109375 C 3.601562 -3.984375 3.832031 -3.773438 3.96875 -3.484375 C 4.113281 -3.203125 4.1875 -2.859375 4.1875 -2.453125 L 4.1875 -1.828125 C 4.1875 -1.234375 4.03125 -0.78125 3.71875 -0.46875 C 3.40625 -0.15625 2.945312 0 2.34375 0 L 0.4375 0 L 0.4375 -7.703125 Z M 1.65625 -3.46875 L 1.65625 -1.09375 L 2.34375 -1.09375 C 2.550781 -1.09375 2.707031 -1.148438 2.8125 -1.265625 C 2.914062 -1.378906 2.96875 -1.578125 2.96875 -1.859375 L 2.96875 -2.53125 C 2.96875 -2.882812 2.90625 -3.128906 2.78125 -3.265625 C 2.664062 -3.398438 2.46875 -3.46875 2.1875 -3.46875 Z M 1.65625 -6.59375 L 1.65625 -4.5625 L 2.125 -4.5625 C 2.351562 -4.5625 2.53125 -4.617188 2.65625 -4.734375 C 2.78125 -4.859375 2.84375 -5.070312 2.84375 -5.375 L 2.84375 -5.8125 C 2.84375 -6.082031 2.789062 -6.28125 2.6875 -6.40625 C 2.59375 -6.53125 2.441406 -6.59375 2.234375 -6.59375 Z M 1.65625 -6.59375 "/></g></g></g><g fill="#737373" fill-opacity="1"><g transform="translate(131.308991, 251.189076)"><g><path d="M 1.578125 -2.546875 L 0.046875 -7.703125 L 1.3125 -7.703125 L 2.234375 -4.1875 L 3.15625 -7.703125 L 4.3125 -7.703125 L 2.78125 -2.546875 L 2.78125 0 L 1.578125 0 Z M 1.578125 -2.546875 "/></g></g></g><g fill="#737373" fill-opacity="1"><g transform="translate(140.061951, 251.189076)"><g/></g></g><g fill="#737373" fill-opacity="1"><g transform="translate(146.165787, 251.189076)"><g><path d="M 2.265625 -7.703125 C 2.898438 -7.703125 3.359375 -7.550781 3.640625 -7.25 C 3.921875 -6.957031 4.0625 -6.515625 4.0625 -5.921875 L 4.0625 -5.65625 C 4.0625 -5.257812 4 -4.929688 3.875 -4.671875 C 3.75 -4.421875 3.550781 -4.234375 3.28125 -4.109375 C 3.601562 -3.984375 3.832031 -3.773438 3.96875 -3.484375 C 4.113281 -3.203125 4.1875 -2.859375 4.1875 -2.453125 L 4.1875 -1.828125 C 4.1875 -1.234375 4.03125 -0.78125 3.71875 -0.46875 C 3.40625 -0.15625 2.945312 0 2.34375 0 L 0.4375 0 L 0.4375 -7.703125 Z M 1.65625 -3.46875 L 1.65625 -1.09375 L 2.34375 -1.09375 C 2.550781 -1.09375 2.707031 -1.148438 2.8125 -1.265625 C 2.914062 -1.378906 2.96875 -1.578125 2.96875 -1.859375 L 2.96875 -2.53125 C 2.96875 -2.882812 2.90625 -3.128906 2.78125 -3.265625 C 2.664062 -3.398438 2.46875 -3.46875 2.1875 -3.46875 Z M 1.65625 -6.59375 L 1.65625 -4.5625 L 2.125 -4.5625 C 2.351562 -4.5625 2.53125 -4.617188 2.65625 -4.734375 C 2.78125 -4.859375 2.84375 -5.070312 2.84375 -5.375 L 2.84375 -5.8125 C 2.84375 -6.082031 2.789062 -6.28125 2.6875 -6.40625 C 2.59375 -6.53125 2.441406 -6.59375 2.234375 -6.59375 Z M 1.65625 -6.59375 "/></g></g></g><g fill="#737373" fill-opacity="1"><g transform="translate(155.028668, 251.189076)"><g><path d="M 2.96875 0 C 2.957031 -0.0507812 2.941406 -0.0976562 2.921875 -0.140625 C 2.910156 -0.179688 2.898438 -0.234375 2.890625 -0.296875 C 2.878906 -0.367188 2.867188 -0.457031 2.859375 -0.5625 C 2.859375 -0.664062 2.859375 -0.796875 2.859375 -0.953125 L 2.859375 -2.15625 C 2.859375 -2.507812 2.796875 -2.757812 2.671875 -2.90625 C 2.546875 -3.0625 2.34375 -3.140625 2.0625 -3.140625 L 1.65625 -3.140625 L 1.65625 0 L 0.4375 0 L 0.4375 -7.703125 L 2.265625 -7.703125 C 2.898438 -7.703125 3.359375 -7.550781 3.640625 -7.25 C 3.921875 -6.957031 4.0625 -6.515625 4.0625 -5.921875 L 4.0625 -5.328125 C 4.0625 -4.535156 3.796875 -4.015625 3.265625 -3.765625 C 3.578125 -3.640625 3.785156 -3.4375 3.890625 -3.15625 C 4.003906 -2.875 4.0625 -2.53125 4.0625 -2.125 L 4.0625 -0.9375 C 4.0625 -0.75 4.066406 -0.582031 4.078125 -0.4375 C 4.097656 -0.289062 4.140625 -0.144531 4.203125 0 Z M 1.65625 -6.59375 L 1.65625 -4.234375 L 2.125 -4.234375 C 2.351562 -4.234375 2.53125 -4.289062 2.65625 -4.40625 C 2.78125 -4.53125 2.84375 -4.742188 2.84375 -5.046875 L 2.84375 -5.8125 C 2.84375 -6.082031 2.789062 -6.28125 2.6875 -6.40625 C 2.59375 -6.53125 2.441406 -6.59375 2.234375 -6.59375 Z M 1.65625 -6.59375 "/></g></g></g><g fill="#737373" fill-opacity="1"><g transform="translate(163.847581, 251.189076)"><g><path d="M 0.4375 -7.703125 L 1.65625 -7.703125 L 1.65625 0 L 0.4375 0 Z M 0.4375 -7.703125 "/></g></g></g><g fill="#737373" fill-opacity="1"><g transform="translate(170.336146, 251.189076)"><g><path d="M 4.359375 0 L 3.140625 0 L 2.921875 -1.390625 L 1.4375 -1.390625 L 1.234375 0 L 0.125 0 L 1.359375 -7.703125 L 3.125 -7.703125 Z M 1.59375 -2.4375 L 2.765625 -2.4375 L 2.171875 -6.34375 Z M 1.59375 -2.4375 "/></g></g></g><g fill="#737373" fill-opacity="1"><g transform="translate(179.210026, 251.189076)"><g><path d="M 1.515625 -5.578125 L 1.515625 0 L 0.421875 0 L 0.421875 -7.703125 L 1.953125 -7.703125 L 3.1875 -3.09375 L 3.1875 -7.703125 L 4.265625 -7.703125 L 4.265625 0 L 3.03125 0 Z M 1.515625 -5.578125 "/></g></g></g><g fill="#737373" fill-opacity="1"><g transform="translate(188.303747, 251.189076)"><g/></g></g><g fill="#737373" fill-opacity="1"><g transform="translate(194.407585, 251.189076)"><g><path d="M 3 -2.234375 L 3.828125 -7.703125 L 5.515625 -7.703125 L 5.515625 0 L 4.359375 0 L 4.359375 -5.515625 L 3.53125 0 L 2.390625 0 L 1.484375 -5.4375 L 1.484375 0 L 0.421875 0 L 0.421875 -7.703125 L 2.109375 -7.703125 Z M 3 -2.234375 "/></g></g></g><g fill="#737373" fill-opacity="1"><g transform="translate(204.754422, 251.189076)"><g><path d="M 1.546875 -1.765625 C 1.546875 -1.492188 1.601562 -1.300781 1.71875 -1.1875 C 1.832031 -1.070312 1.984375 -1.015625 2.171875 -1.015625 C 2.367188 -1.015625 2.523438 -1.070312 2.640625 -1.1875 C 2.753906 -1.300781 2.8125 -1.492188 2.8125 -1.765625 L 2.8125 -5.921875 C 2.8125 -6.203125 2.753906 -6.398438 2.640625 -6.515625 C 2.523438 -6.628906 2.367188 -6.6875 2.171875 -6.6875 C 1.984375 -6.6875 1.832031 -6.628906 1.71875 -6.515625 C 1.601562 -6.398438 1.546875 -6.203125 1.546875 -5.921875 Z M 0.34375 -5.859375 C 0.34375 -6.472656 0.5 -6.945312 0.8125 -7.28125 C 1.125 -7.613281 1.578125 -7.78125 2.171875 -7.78125 C 2.765625 -7.78125 3.21875 -7.613281 3.53125 -7.28125 C 3.851562 -6.945312 4.015625 -6.472656 4.015625 -5.859375 L 4.015625 -1.84375 C 4.015625 -1.21875 3.851562 -0.738281 3.53125 -0.40625 C 3.21875 -0.0703125 2.765625 0.09375 2.171875 0.09375 C 1.578125 0.09375 1.125 -0.0703125 0.8125 -0.40625 C 0.5 -0.738281 0.34375 -1.21875 0.34375 -1.84375 Z M 0.34375 -5.859375 "/></g></g></g><g fill="#737373" fill-opacity="1"><g transform="translate(213.507383, 251.189076)"><g><path d="M 1.515625 -5.578125 L 1.515625 0 L 0.421875 0 L 0.421875 -7.703125 L 1.953125 -7.703125 L 3.1875 -3.09375 L 3.1875 -7.703125 L 4.265625 -7.703125 L 4.265625 0 L 3.03125 0 Z M 1.515625 -5.578125 "/></g></g></g><g fill="#737373" fill-opacity="1"><g transform="translate(222.601099, 251.189076)"><g><path d="M 0.09375 -7.703125 L 3.828125 -7.703125 L 3.828125 -6.59375 L 2.5625 -6.59375 L 2.5625 0 L 1.359375 0 L 1.359375 -6.59375 L 0.09375 -6.59375 Z M 0.09375 -7.703125 "/></g></g></g><g fill="#737373" fill-opacity="1"><g transform="translate(230.914372, 251.189076)"><g><path d="M 1.65625 -4.453125 L 3.3125 -4.453125 L 3.3125 -3.359375 L 1.65625 -3.359375 L 1.65625 -1.09375 L 3.734375 -1.09375 L 3.734375 0 L 0.4375 0 L 0.4375 -7.703125 L 3.734375 -7.703125 L 3.734375 -6.59375 L 1.65625 -6.59375 Z M 1.65625 -4.453125 "/></g></g></g><g fill="#737373" fill-opacity="1"><g transform="translate(239.359551, 251.189076)"><g><path d="M 2.96875 0 C 2.957031 -0.0507812 2.941406 -0.0976562 2.921875 -0.140625 C 2.910156 -0.179688 2.898438 -0.234375 2.890625 -0.296875 C 2.878906 -0.367188 2.867188 -0.457031 2.859375 -0.5625 C 2.859375 -0.664062 2.859375 -0.796875 2.859375 -0.953125 L 2.859375 -2.15625 C 2.859375 -2.507812 2.796875 -2.757812 2.671875 -2.90625 C 2.546875 -3.0625 2.34375 -3.140625 2.0625 -3.140625 L 1.65625 -3.140625 L 1.65625 0 L 0.4375 0 L 0.4375 -7.703125 L 2.265625 -7.703125 C 2.898438 -7.703125 3.359375 -7.550781 3.640625 -7.25 C 3.921875 -6.957031 4.0625 -6.515625 4.0625 -5.921875 L 4.0625 -5.328125 C 4.0625 -4.535156 3.796875 -4.015625 3.265625 -3.765625 C 3.578125 -3.640625 3.785156 -3.4375 3.890625 -3.15625 C 4.003906 -2.875 4.0625 -2.53125 4.0625 -2.125 L 4.0625 -0.9375 C 4.0625 -0.75 4.066406 -0.582031 4.078125 -0.4375 C 4.097656 -0.289062 4.140625 -0.144531 4.203125 0 Z M 1.65625 -6.59375 L 1.65625 -4.234375 L 2.125 -4.234375 C 2.351562 -4.234375 2.53125 -4.289062 2.65625 -4.40625 C 2.78125 -4.53125 2.84375 -4.742188 2.84375 -5.046875 L 2.84375 -5.8125 C 2.84375 -6.082031 2.789062 -6.28125 2.6875 -6.40625 C 2.59375 -6.53125 2.441406 -6.59375 2.234375 -6.59375 Z M 1.65625 -6.59375 "/></g></g></g><g fill="#737373" fill-opacity="1"><g transform="translate(248.178459, 251.189076)"><g><path d="M 1.546875 -1.765625 C 1.546875 -1.492188 1.601562 -1.300781 1.71875 -1.1875 C 1.832031 -1.070312 1.984375 -1.015625 2.171875 -1.015625 C 2.367188 -1.015625 2.523438 -1.070312 2.640625 -1.1875 C 2.753906 -1.300781 2.8125 -1.492188 2.8125 -1.765625 L 2.8125 -5.921875 C 2.8125 -6.203125 2.753906 -6.398438 2.640625 -6.515625 C 2.523438 -6.628906 2.367188 -6.6875 2.171875 -6.6875 C 1.984375 -6.6875 1.832031 -6.628906 1.71875 -6.515625 C 1.601562 -6.398438 1.546875 -6.203125 1.546875 -5.921875 Z M 0.34375 -5.859375 C 0.34375 -6.472656 0.5 -6.945312 0.8125 -7.28125 C 1.125 -7.613281 1.578125 -7.78125 2.171875 -7.78125 C 2.765625 -7.78125 3.21875 -7.613281 3.53125 -7.28125 C 3.851562 -6.945312 4.015625 -6.472656 4.015625 -5.859375 L 4.015625 -1.84375 C 4.015625 -1.21875 3.851562 -0.738281 3.53125 -0.40625 C 3.21875 -0.0703125 2.765625 0.09375 2.171875 0.09375 C 1.578125 0.09375 1.125 -0.0703125 0.8125 -0.40625 C 0.5 -0.738281 0.34375 -1.21875 0.34375 -1.84375 Z M 0.34375 -5.859375 "/></g></g></g></svg>