<svg width="87" height="32" viewBox="0 0 87 32" fill="none" xmlns="http://www.w3.org/2000/svg">
<g clip-path="url(#clip0_25_15332)">
<path d="M30.894 14.6949C30.6332 22.3089 24.3787 28.4014 16.7007 28.4014V21.3007C20.6788 21.3007 23.8937 18.0285 23.799 14.0288C23.7101 10.2625 20.6381 7.19047 16.8718 7.10161C12.8721 7.00776 9.59995 10.2218 9.59995 14.1999V24.8984C9.60078 28.8208 6.42162 32 2.5 32V14.2007C2.5 11.6137 3.19181 9.18865 4.40018 7.09995C6.85597 2.85526 11.4453 0 16.7024 0C24.7018 0.0008305 31.1672 6.70047 30.894 14.6949Z" fill="url(#paint0_angular_25_15332)"/>
<circle cx="17" cy="14.5" r="2.5" fill="#0EA5E9"/>
<path d="M30.894 14.6949C30.6332 22.3089 24.3787 28.4014 16.7007 28.4014V21.3007C20.6788 21.3007 23.8937 18.0285 23.799 14.0288C23.7101 10.2625 20.6381 7.19047 16.8718 7.10161C12.8721 7.00776 9.59995 10.2218 9.59995 14.1999V24.8984C9.60078 28.8208 6.42162 32 2.5 32V14.2007C2.5 11.6137 3.19181 9.18865 4.40018 7.09995C6.85597 2.85526 11.4453 0 16.7024 0C24.7018 0.0008305 31.1672 6.70047 30.894 14.6949Z" fill="url(#paint1_angular_25_15332)"/>
<circle cx="17" cy="14.5" r="2.5" fill="#8C9BB1"/>
</g>
<path d="M42.0083 23V8.45455H47.4629C48.5803 8.45455 49.5178 8.66288 50.2754 9.07955C51.0377 9.49621 51.613 10.0691 52.0012 10.7983C52.3942 11.5227 52.5907 12.3466 52.5907 13.2699C52.5907 14.2027 52.3942 15.0312 52.0012 15.7557C51.6082 16.4801 51.0282 17.0507 50.2612 17.4673C49.4941 17.8793 48.5495 18.0852 47.4274 18.0852H43.8123V15.919H47.0723C47.7257 15.919 48.2607 15.8054 48.6774 15.5781C49.094 15.3509 49.4018 15.0384 49.6007 14.6406C49.8043 14.2429 49.9061 13.786 49.9061 13.2699C49.9061 12.7538 49.8043 12.2992 49.6007 11.9062C49.4018 11.5133 49.0917 11.2079 48.6703 10.9901C48.2536 10.7675 47.7162 10.6562 47.058 10.6562H44.6433V23H42.0083ZM57.0568 8.45455V23H54.4858V8.45455H57.0568ZM62.5598 23.2202C61.8685 23.2202 61.2459 23.0971 60.6919 22.8509C60.1427 22.5999 59.7071 22.2306 59.3851 21.7429C59.0679 21.2552 58.9093 20.6539 58.9093 19.9389C58.9093 19.3234 59.0229 18.8144 59.2502 18.4119C59.4775 18.0095 59.7876 17.6875 60.1806 17.446C60.5736 17.2045 61.0163 17.0223 61.5087 16.8991C62.0059 16.7713 62.5196 16.679 63.0499 16.6222C63.6891 16.5559 64.2076 16.4967 64.6053 16.4446C65.003 16.3878 65.2918 16.3026 65.4718 16.1889C65.6564 16.0705 65.7488 15.8883 65.7488 15.642V15.5994C65.7488 15.0644 65.5901 14.6501 65.2729 14.3565C64.9557 14.063 64.4988 13.9162 63.9022 13.9162C63.2724 13.9162 62.7729 14.0535 62.4036 14.3281C62.039 14.6027 61.7928 14.9271 61.665 15.3011L59.2644 14.9602C59.4538 14.2973 59.7663 13.7434 60.2019 13.2983C60.6375 12.8485 61.1702 12.5123 61.7999 12.2898C62.4296 12.0625 63.1257 11.9489 63.888 11.9489C64.4135 11.9489 64.9367 12.0104 65.4576 12.1335C65.9784 12.2566 66.4542 12.4602 66.8851 12.7443C67.316 13.0237 67.6616 13.4048 67.9221 13.8878C68.1872 14.3707 68.3198 14.9744 68.3198 15.6989V23H65.8482V21.5014H65.763C65.6067 21.8045 65.3865 22.0885 65.1025 22.3537C64.8231 22.6141 64.4703 22.8248 64.0442 22.9858C63.6228 23.142 63.128 23.2202 62.5598 23.2202ZM63.2275 21.331C63.7435 21.331 64.191 21.2292 64.5698 21.0256C64.9486 20.8172 65.2398 20.5426 65.4434 20.2017C65.6517 19.8608 65.7559 19.4891 65.7559 19.0866V17.8011C65.6754 17.8674 65.5381 17.929 65.3439 17.9858C65.1545 18.0426 64.9415 18.0923 64.7047 18.1349C64.468 18.1776 64.2336 18.2154 64.0016 18.2486C63.7696 18.2817 63.5684 18.3101 63.3979 18.3338C63.0144 18.3859 62.6711 18.4711 62.3681 18.5895C62.065 18.7079 61.8259 18.8736 61.6507 19.0866C61.4756 19.295 61.388 19.5649 61.388 19.8963C61.388 20.3698 61.5608 20.7273 61.9064 20.9688C62.2521 21.2102 62.6924 21.331 63.2275 21.331ZM70.625 23V12.0909H73.196V23H70.625ZM71.9176 10.5426C71.5104 10.5426 71.16 10.4077 70.8665 10.1378C70.5729 9.86316 70.4261 9.53409 70.4261 9.15057C70.4261 8.76231 70.5729 8.43324 70.8665 8.16335C71.16 7.88873 71.5104 7.75142 71.9176 7.75142C72.3296 7.75142 72.6799 7.88873 72.9688 8.16335C73.2623 8.43324 73.4091 8.76231 73.4091 9.15057C73.4091 9.53409 73.2623 9.86316 72.9688 10.1378C72.6799 10.4077 72.3296 10.5426 71.9176 10.5426ZM78.1309 16.608V23H75.5599V12.0909H78.0172V13.9446H78.1451C78.396 13.3338 78.7961 12.8485 79.3454 12.4886C79.8993 12.1288 80.5835 11.9489 81.3979 11.9489C82.1508 11.9489 82.8065 12.1098 83.3653 12.4318C83.9287 12.7538 84.3643 13.2202 84.6721 13.831C84.9846 14.4418 85.1385 15.1828 85.1337 16.054V23H82.5627V16.4517C82.5627 15.7225 82.3733 15.152 81.9945 14.7401C81.6205 14.3281 81.102 14.1222 80.4391 14.1222C79.9893 14.1222 79.5892 14.2216 79.2388 14.4205C78.8932 14.6146 78.6209 14.8963 78.4221 15.2656C78.2279 15.6349 78.1309 16.0824 78.1309 16.608Z" fill="#64748B"/>
<defs>
<radialGradient id="paint0_angular_25_15332" cx="0" cy="0" r="1" gradientUnits="userSpaceOnUse" gradientTransform="translate(16.7012 16) rotate(90) scale(16 14.2012)">
<stop stop-color="#0EA5E9"/>
<stop offset="1" stop-color="#0369A1"/>
</radialGradient>
<radialGradient id="paint1_angular_25_15332" cx="0" cy="0" r="1" gradientUnits="userSpaceOnUse" gradientTransform="translate(16.7012 16) rotate(90) scale(16 14.2012)">
<stop stop-color="#94A3B8"/>
<stop offset="1" stop-color="#64748B"/>
</radialGradient>
<clipPath id="clip0_25_15332">
<rect width="32" height="32" fill="white" transform="translate(0.5)"/>
</clipPath>
</defs>
</svg>
