<svg width="26" height="26" viewBox="0 0 26 26" fill="none" xmlns="http://www.w3.org/2000/svg">
<g filter="url(#filter0_d_352_3166)">
<g clip-path="url(#clip0_352_3166)">
<circle cx="13" cy="12" r="9.375" fill="#22C55E" stroke="#16A34A" stroke-width="1.25"/>
</g>
</g>
<path d="M18.5917 8.00829C18.5142 7.93019 18.4221 7.86819 18.3205 7.82588C18.219 7.78358 18.11 7.7618 18 7.7618C17.89 7.7618 17.7811 7.78358 17.6796 7.82588C17.578 7.86819 17.4858 7.93019 17.4084 8.00829L11.2 14.225L8.59171 11.6083C8.51127 11.5306 8.41632 11.4695 8.31227 11.4285C8.20823 11.3875 8.09713 11.3674 7.98531 11.3693C7.87349 11.3713 7.76315 11.3952 7.66058 11.4398C7.55802 11.4843 7.46524 11.5487 7.38754 11.6291C7.30984 11.7096 7.24875 11.8045 7.20774 11.9086C7.16674 12.0126 7.14663 12.1237 7.14856 12.2355C7.1505 12.3473 7.17444 12.4577 7.21902 12.5602C7.2636 12.6628 7.32794 12.7556 7.40837 12.8333L10.6084 16.0333C10.6858 16.1114 10.778 16.1734 10.8796 16.2157C10.9811 16.258 11.09 16.2798 11.2 16.2798C11.31 16.2798 11.419 16.258 11.5205 16.2157C11.6221 16.1734 11.7142 16.1114 11.7917 16.0333L18.5917 9.23329C18.6763 9.15526 18.7438 9.06055 18.79 8.95513C18.8361 8.84972 18.86 8.73588 18.86 8.62079C18.86 8.50571 18.8361 8.39187 18.79 8.28646C18.7438 8.18104 18.6763 8.08633 18.5917 8.00829Z" fill="white"/>
<defs>
<filter id="filter0_d_352_3166" x="0.5" y="0.75" width="25" height="25" filterUnits="userSpaceOnUse" color-interpolation-filters="sRGB">
<feFlood flood-opacity="0" result="BackgroundImageFix"/>
<feColorMatrix in="SourceAlpha" type="matrix" values="0 0 0 0 0 0 0 0 0 0 0 0 0 0 0 0 0 0 127 0" result="hardAlpha"/>
<feOffset dy="1.25"/>
<feGaussianBlur stdDeviation="1.25"/>
<feColorMatrix type="matrix" values="0 0 0 0 0 0 0 0 0 0 0 0 0 0 0 0 0 0 0.05 0"/>
<feBlend mode="normal" in2="BackgroundImageFix" result="effect1_dropShadow_352_3166"/>
<feBlend mode="normal" in="SourceGraphic" in2="effect1_dropShadow_352_3166" result="shape"/>
</filter>
<clipPath id="clip0_352_3166">
<rect x="3" y="2" width="20" height="20" rx="10" fill="white"/>
</clipPath>
</defs>
</svg>
