<svg width="16" height="16" viewBox="0 0 16 16" fill="none" xmlns="http://www.w3.org/2000/svg">
<g clip-path="url(#clip0_672_3175)">
<path d="M15.8045 14.8621L11.8252 10.8828C12.9096 9.5565 13.4428 7.86416 13.3144 6.15581C13.1861 4.44745 12.406 2.85379 11.1356 1.70445C9.86516 0.555106 8.20158 -0.0619731 6.48895 -0.0191518C4.77632 0.0236694 3.14566 0.723114 1.93426 1.93451C0.72287 3.1459 0.0234252 4.77656 -0.019396 6.48919C-0.0622172 8.20183 0.554862 9.8654 1.7042 11.1358C2.85354 12.4062 4.44721 13.1863 6.15556 13.3147C7.86392 13.443 9.55625 12.9098 10.8825 11.8254L14.8619 15.8048C14.9876 15.9262 15.156 15.9934 15.3308 15.9919C15.5056 15.9904 15.6728 15.9203 15.7964 15.7966C15.92 15.673 15.9901 15.5058 15.9916 15.331C15.9932 15.1562 15.926 14.9878 15.8045 14.8621ZM6.66652 12.0001C5.61169 12.0001 4.58054 11.6873 3.70348 11.1013C2.82642 10.5152 2.14283 9.68228 1.73916 8.70774C1.3355 7.7332 1.22988 6.66085 1.43567 5.62628C1.64145 4.59172 2.14941 3.64141 2.89529 2.89553C3.64117 2.14965 4.59147 1.6417 5.62604 1.43591C6.6606 1.23012 7.73296 1.33574 8.7075 1.73941C9.68204 2.14308 10.515 2.82666 11.101 3.70372C11.6871 4.58079 11.9999 5.61193 11.9999 6.66677C11.9983 8.08077 11.4359 9.4364 10.436 10.4362C9.43615 11.4361 8.08052 11.9985 6.66652 12.0001Z" fill="#64748B"/>
</g>
<defs>
<clipPath id="clip0_672_3175">
<rect width="16" height="16" fill="white"/>
</clipPath>
</defs>
</svg>
