<svg width="95" height="32" viewBox="0 0 95 32" fill="none" xmlns="http://www.w3.org/2000/svg">
<path d="M54.3156 6.71128V10.2982H46.8276V14.1731H52.4305V17.6553H46.8276V25.0909H42.3505V6.71128H54.3156Z" fill="white"/>
<path d="M61.1458 5.71637V25.0909H56.6687V5.71637H61.1458Z" fill="white"/>
<path d="M78.1619 17.5505C78.1619 17.9695 78.1358 18.4058 78.0834 18.8596H67.951C68.0208 19.7673 68.3088 20.4655 68.815 20.9542C69.3387 21.4255 69.9758 21.6611 70.7263 21.6611C71.8434 21.6611 72.6201 21.1898 73.0565 20.2473H77.8216C77.5772 21.2073 77.1321 22.0713 76.4863 22.8393C75.8579 23.6073 75.0638 24.2095 74.1038 24.6458C73.1438 25.0822 72.0703 25.3004 70.8834 25.3004C69.4521 25.3004 68.1779 24.9949 67.0608 24.384C65.9438 23.7731 65.071 22.9004 64.4427 21.7658C63.8143 20.6313 63.5001 19.3047 63.5001 17.7862C63.5001 16.2676 63.8056 14.9411 64.4165 13.8066C65.0448 12.672 65.9176 11.7993 67.0347 11.1884C68.1518 10.5775 69.4347 10.272 70.8834 10.272C72.2972 10.272 73.5539 10.5687 74.6536 11.1622C75.7532 11.7556 76.6085 12.6022 77.2194 13.7018C77.8478 14.8015 78.1619 16.0844 78.1619 17.5505ZM73.5801 16.3724C73.5801 15.6044 73.3183 14.9935 72.7947 14.5396C72.271 14.0858 71.6165 13.8589 70.831 13.8589C70.0805 13.8589 69.4434 14.0771 68.9198 14.5135C68.4136 14.9498 68.0994 15.5695 67.9772 16.3724H73.5801Z" fill="white"/>
<path d="M89.1638 25.0909L86.3624 21.0327L84.006 25.0909H79.1624L83.9798 17.6291L79.0315 10.4815H84.0584L86.8598 14.5135L89.2162 10.4815H94.0598L89.1638 17.8385L94.1907 25.0909H89.1638Z" fill="white"/>
<path d="M14.626 9.94595C19.0055 11.4917 23.7285 11.4058 28.0651 9.73128C28.108 7.97089 27.6357 6.2105 26.8199 4.62186L26.3906 3.76313C26.2618 3.80607 26.09 3.89195 26.0041 3.97782C22.054 5.86702 17.5886 6.12464 13.4238 4.62187C10.5042 3.5914 7.32687 3.84901 4.57895 5.22297L3.72023 5.65233C3.76316 5.78114 3.84904 5.95288 3.93492 6.03875C4.45015 7.1551 4.87951 8.35732 5.18006 9.60247C8.1856 8.74374 11.5346 8.82961 14.626 9.94595Z" fill="#3B82F6"/>
<path d="M3.93493 22.8698L4.87952 22.3545C6.7935 21.3975 8.90498 20.9343 11 20.9954C12.2888 21.033 13.5713 21.2689 14.7978 21.7105C15.1973 21.8522 15.5981 21.9824 16 22.1011V26.6777C14.3376 26.3686 12.6547 26.3244 11 26.5375C9.28349 26.7584 7.59733 27.2562 5.99586 28.0221C5.90999 28.108 5.73824 28.1939 5.60943 28.2368L5.18007 27.3781C4.45015 25.9612 4.0208 24.4155 3.93493 22.8698Z" fill="#3B82F6"/>
<path d="M4.45008 18.9196C8.09966 17.4169 12.1786 17.288 15.9141 18.6191C19.349 19.8213 22.9986 20.036 26.4335 19.2631C26.3905 17.331 26.6481 15.4418 27.3351 13.5526C22.8268 14.8836 17.975 14.7548 13.4667 13.1662C10.8905 12.2216 8.05673 12.2216 5.48055 13.0803C5.52349 14.9266 5.18001 16.8157 4.53597 18.662C4.53597 18.662 4.49302 18.7908 4.45008 18.9196Z" fill="#3B82F6"/>
</svg>
